<svg xmlns="http://www.w3.org/2000/svg" width="430" height="430" style="width:100%;height:100%;transform:translate3d(0,0,0);content-visibility:visible" viewBox="0 0 430 430"><defs><filter id="a" width="100%" height="100%" x="0%" y="0%" filterUnits="objectBoundingBox"><feComponentTransfer in="SourceGraphic"><feFuncA tableValues="1.0 0.0" type="table"/></feComponentTransfer></filter><filter id="c" width="100%" height="100%" x="0%" y="0%" filterUnits="objectBoundingBox"><feComponentTransfer in="SourceGraphic"><feFuncA tableValues="1.0 0.0" type="table"/></feComponentTransfer></filter><filter id="e" width="100%" height="100%" x="0%" y="0%" filterUnits="objectBoundingBox"><feComponentTransfer in="SourceGraphic"><feFuncA tableValues="1.0 0.0" type="table"/></feComponentTransfer></filter><filter id="g" width="100%" height="100%" x="0%" y="0%" filterUnits="objectBoundingBox"><feComponentTransfer in="SourceGraphic"><feFuncA tableValues="1.0 0.0" type="table"/></feComponentTransfer></filter><filter id="i" width="100%" height="100%" x="0%" y="0%" filterUnits="objectBoundingBox"><feComponentTransfer in="SourceGraphic"><feFuncA tableValues="1.0 0.0" type="table"/></feComponentTransfer></filter><filter id="k" width="100%" height="100%" x="0%" y="0%" filterUnits="objectBoundingBox"><feComponentTransfer in="SourceGraphic"><feFuncA tableValues="1.0 0.0" type="table"/></feComponentTransfer></filter><filter id="m" width="100%" height="100%" x="0%" y="0%" filterUnits="objectBoundingBox"><feComponentTransfer in="SourceGraphic"><feFuncA tableValues="1.0 0.0" type="table"/></feComponentTransfer></filter><filter id="o" width="100%" height="100%" x="0%" y="0%" filterUnits="objectBoundingBox"><feComponentTransfer in="SourceGraphic"><feFuncA tableValues="1.0 0.0" type="table"/></feComponentTransfer></filter><filter id="q" width="100%" height="100%" x="0%" y="0%" filterUnits="objectBoundingBox"><feComponentTransfer in="SourceGraphic"><feFuncA tableValues="1.0 0.0" type="table"/></feComponentTransfer></filter><path id="b" style="display:none"/><path id="d" style="display:none"/><path id="f" style="display:none"/><path id="h" style="display:none"/><path id="j" fill="red" d="m-33.84-81.137.01 19.41-9.266.498c-43.48 0-78.719 35.239-78.719 78.719v31.512c0 8.459 6.862 15.32 15.321 15.32h19.43c38.487 2.989 37.994 16.815 70.166 16.815h33.796c32.172 0 31.679-13.826 70.166-16.815h19.43c8.459 0 15.321-6.861 15.321-15.32V17.49c0-43.48-35.239-78.719-78.719-78.719l-9.163-.498-.01-.063.01-18.942" style="display:block" transform="matrix(.89 0 0 .89 215.5 296.536)"/><path id="l" fill="#B26836" d="m29-118.904 33 28.135-.034 76.954c0 33.806-27.413 61.219-61.219 61.219H-.747c-33.806 0-61.219-27.413-61.219-61.219l.034-76.528" class="quaternary" style="display:block" transform="matrix(.74 0 0 .74 330.385 198.95)"/><path id="n" fill="#F28BA8" d="m35.264-97.12 8.968.498c43.48 0 92.355 52.67 92.355 96.15V31.04c0 8.459-6.861 15.321-15.32 15.321h-19.43C63.35 49.35 49.07 71.432 16.898 71.432h-33.796c-32.172 0-31.679-13.826-70.166-16.815h-19.43c-8.459 0-15.321-6.861-15.321-15.32V7.785c0-43.48 35.239-78.719 78.719-78.719l8.968-.498" class="denary" style="display:block" transform="matrix(.6512 0 0 .74 323.4 301.847)"/><path id="p" fill="#F9C9C0" d="m29-118.904 33 28.135-.034 76.954c0 33.806-27.413 61.219-61.219 61.219H-.747c-33.806 0-61.219-27.413-61.219-61.219l.034-76.528" class="secondary" style="display:block" transform="matrix(.74 0 0 .74 128.484 193.866)"/><path id="r" fill="#4BB3FD" d="m62.537-109.946 8.968.498c43.48 0 82.558 85.915 82.558 129.395v31.512c0 8.459-6.861 15.321-15.32 15.321h-19.431c-38.487 2.989-70.242 4.652-102.414 4.652h-33.796c-32.172 0-31.679-13.826-70.166-16.815h-19.43c-8.459 0-15.321-6.861-15.321-15.32V7.785c0-43.48 35.239-78.719 78.719-78.719l8.968-.498" class="septenary" style="display:block" transform="matrix(.6512 0 0 .74 122.4 301.847)"/><mask id="D" mask-type="alpha"><g filter="url(#a)"><path fill="#fff" d="M0 0h430v430H0z" opacity="0"/><use xmlns:ns1="http://www.w3.org/1999/xlink" ns1:href="#b"/></g></mask><mask id="C" mask-type="alpha"><g filter="url(#c)"><path fill="#fff" d="M0 0h430v430H0z" opacity="0"/><use xmlns:ns2="http://www.w3.org/1999/xlink" ns2:href="#d"/></g></mask><mask id="B" mask-type="alpha"><g filter="url(#e)"><path fill="#fff" d="M0 0h430v430H0z" opacity="0"/><use xmlns:ns3="http://www.w3.org/1999/xlink" ns3:href="#f"/></g></mask><mask id="A" mask-type="alpha"><g filter="url(#g)"><path fill="#fff" d="M0 0h430v430H0z" opacity="0"/><use xmlns:ns4="http://www.w3.org/1999/xlink" ns4:href="#h"/></g></mask><mask id="y" mask-type="alpha"><g filter="url(#i)"><path fill="#fff" d="M0 0h430v430H0z" opacity="0"/><use xmlns:ns5="http://www.w3.org/1999/xlink" ns5:href="#j"/></g></mask><mask id="x" mask-type="alpha"><g filter="url(#k)"><path fill="#fff" d="M0 0h430v430H0z" opacity="0"/><use xmlns:ns6="http://www.w3.org/1999/xlink" ns6:href="#l"/></g></mask><mask id="w" mask-type="alpha"><g filter="url(#m)"><path fill="#fff" d="M0 0h430v430H0z" opacity="0"/><use xmlns:ns7="http://www.w3.org/1999/xlink" ns7:href="#n"/></g></mask><mask id="v" mask-type="alpha"><g filter="url(#o)"><path fill="#fff" d="M0 0h430v430H0z" opacity="0"/><use xmlns:ns8="http://www.w3.org/1999/xlink" ns8:href="#p"/></g></mask><mask id="u" mask-type="alpha"><g filter="url(#q)"><path fill="#fff" d="M0 0h430v430H0z" opacity="0"/><use xmlns:ns9="http://www.w3.org/1999/xlink" ns9:href="#r"/></g></mask><clipPath id="s"><path d="M0 0h430v430H0z"/></clipPath><clipPath id="z"><path d="M0 0h430v430H0z"/></clipPath><clipPath id="t"><path d="M0 0h430v430H0z"/></clipPath></defs><g clip-path="url(#s)"><g clip-path="url(#t)" style="display:block"><path fill="#4BB3FD" d="m34.128-71.432 8.968.498c43.48 0 78.719 35.239 78.719 78.719v31.512c0 8.459-6.861 15.32-15.32 15.32H87.064C48.577 57.606 49.07 71.432 16.898 71.432h-33.796c-32.172 0-31.679-13.826-70.166-16.815h-19.43c-8.459 0-15.321-6.861-15.321-15.32V7.785c0-43.48 35.239-78.719 78.719-78.719l8.968-.498" class="septenary" style="display:block" transform="matrix(.74 0 0 .74 115 294.447)"/><g mask="url(#u)" opacity=".5" style="mix-blend-mode:multiply;display:block"><path fill="#4BB3FD" d="m140.255 241.587 6.636.369c32.175 0 58.252 26.077 58.252 58.252v23.319c0 6.26-5.077 11.337-11.337 11.337h-14.379c-28.48 2.211-28.115 12.443-51.922 12.443h-25.01c-23.807 0-23.442-10.232-51.922-12.443H36.194c-6.26 0-11.337-5.078-11.337-11.337v-23.32c0-32.174 26.077-58.251 58.252-58.251l6.636-.369" class="septenary" opacity="1"/></g><g style="display:block"><path fill="#F9C9C0" d="M89.745 226.978v14.61c0 12.926 10.484 23.41 23.41 23.41H115c12.927 0 23.411-10.484 23.411-23.41V227.6" class="secondary"/><path fill="#F9C9C0" d="M-32.883-25.689v19.742c0 3.53.579 6.926 1.647 10.097 11.357-1.871 15.805-3.149 29.33-6.517l2.417-.602c16.951-4.221 27.11-9.89 32.379-13.529l-.007-8.351" class="secondary" opacity=".5" style="mix-blend-mode:multiply" transform="matrix(.74 0 0 .74 114.078 245.988)"/><path fill="#EBE6EF" d="M139.148 304.164c0-7.496.767-13.572 1.712-13.572h.18c.405.012 1.762.991 4.446 3.763 4.809-4.7 9.617-4.7 14.424 0 2.684-2.772 4.041-3.75 4.445-3.763h.18c.946 0 1.712 6.076 1.712 13.572v-.822V305c0 6.618-5.364 11.982-11.982 11.982h-3.134c-6.618 0-11.982-5.364-11.982-11.982v-1.66" class="quinary"/></g><path fill="#F9C9C0" d="m29-118.904 33 28.135-.034 76.954c0 33.806-27.413 61.219-61.219 61.219H-.747c-33.806 0-61.219-27.413-61.219-61.219l.034-76.528" class="secondary" style="display:block" transform="matrix(.74 0 0 .74 114.585 198.95)"/><g mask="url(#v)" opacity=".5" style="mix-blend-mode:multiply;display:block"><path fill="#F9C9C0" d="m136.045 110.962 24.42 20.82-.025 56.946c0 25.016-20.286 45.302-45.302 45.302h-1.106c-25.016 0-45.302-20.286-45.302-45.302l.025-56.631" class="secondary" opacity="1"/></g><g style="display:block"><path fill="none" stroke="#92140C" stroke-linecap="round" stroke-linejoin="round" stroke-width="2.22" d="M160.44 166.19s1.936-29.309-28.112-44.978c0 0-9.171 34.056-66.484 45.925 0 0-19.65-57.862 4.888-71.914 2.75-1.574 7.26-1.414 9.928.294 3.745 2.397 7.5 6.304 9.869 8.32 1.797 1.532 4.1 2.347 6.459 2.232 3.25-.16 7.753-1.092 12.197-3.475 35.559-14.133 56.85 2.132 56.417 23.226-.403 19.63 1.843 35.946-5.162 40.37z" class="senary"/><path fill="#92140C" d="M160.44 166.19s1.936-29.309-28.112-44.978c0 0-9.171 34.056-66.484 45.925 0 0-19.65-57.862 4.888-71.914 2.75-1.574 7.26-1.414 9.928.294 3.745 2.397 7.5 6.304 9.869 8.32 1.797 1.532 4.1 2.347 6.459 2.232 3.25-.16 7.753-1.092 12.197-3.475 35.559-14.133 56.85 2.132 56.417 23.226-.403 19.63 1.843 35.946-5.162 40.37z" class="senary"/></g><g fill="none" stroke="#121331" stroke-linecap="round" stroke-linejoin="round" stroke-width="7.03" style="display:block"><path d="M160.44 163.872v24.856c0 25.016-20.286 45.302-45.302 45.302h-1.106c-25.016 0-45.302-20.286-45.302-45.302v-22.221" class="primary"/><path d="M160.44 166.19s1.936-29.309-28.112-44.978c0 0-9.171 34.056-66.484 45.925 0 0-19.65-57.862 4.888-71.914 2.75-1.574 7.26-1.414 9.928.294 3.745 2.397 7.5 6.304 9.869 8.32 1.797 1.532 4.1 2.347 6.459 2.232 3.25-.16 7.753-1.092 12.197-3.475 35.559-14.133 56.85 2.132 56.417 23.226-.403 19.63 1.843 35.946-5.162 40.37z" class="primary"/></g><g fill="none" stroke="#121331" stroke-linecap="round" stroke-linejoin="round" stroke-width="7.03" style="display:block"><path d="M89.745 226.978v14.61c0 12.926 10.484 23.41 23.41 23.41H115c12.927 0 23.411-10.484 23.411-23.41V227.6m.737 76.564s0 0 0 0c0-7.496.767-13.572 1.712-13.572h.18c.405.012 1.762.991 4.446 3.763 4.809-4.7 9.617-4.7 14.424 0 2.684-2.772 4.041-3.75 4.445-3.763h.18c.946 0 1.712 6.076 1.712 13.572 0 0 0 0 0 0v-.822V305c0 6.618-5.364 11.982-11.982 11.982h-3.134c-6.618 0-11.982-5.364-11.982-11.982v-1.66" class="primary"/><path d="m140.255 241.587 6.636.369c32.175 0 58.252 26.077 58.252 58.252v23.319c0 6.26-5.078 11.337-11.337 11.337h-14.379c-28.48 2.211-28.115 12.443-51.922 12.443h-25.01c-23.807 0-23.442-10.232-51.922-12.443H36.194c-6.26 0-11.337-5.078-11.337-11.337v-23.32c0-32.174 26.077-58.251 58.252-58.251l6.636-.369" class="primary"/></g><path fill="#F28BA8" d="m34.128-71.432 8.968.498c43.48 0 78.719 35.239 78.719 78.719v31.512c0 8.459-6.862 15.32-15.321 15.32h-19.43C48.577 57.606 49.07 71.432 16.898 71.432h-33.796c-32.172 0-31.679-13.826-70.166-16.815h-19.43c-8.459 0-15.321-6.861-15.321-15.32V7.785c0-43.48 35.239-78.719 78.719-78.719l8.968-.498" class="denary" style="display:block" transform="matrix(.74 0 0 .74 316 294.447)"/><g mask="url(#w)" opacity=".5" style="mix-blend-mode:multiply;display:block"><path fill="#F28BA8" d="m341.255 241.587 6.636.369c32.175 0 58.252 26.077 58.252 58.252v23.319c0 6.26-5.078 11.337-11.337 11.337h-14.379c-28.48 2.211-28.115 12.443-51.922 12.443h-25.01c-23.807 0-23.442-10.232-51.922-12.443h-14.379c-6.26 0-11.337-5.078-11.337-11.337v-23.32c0-32.174 26.077-58.251 58.252-58.251l6.636-.369" class="denary" opacity="1"/></g><g style="display:block"><path fill="#B26836" d="M290.745 226.978v14.61c0 12.926 10.484 23.41 23.41 23.41H316c12.927 0 23.411-10.484 23.411-23.41V227.6" class="quaternary"/><path fill="#B26836" d="M-32.883-25.689v19.742c0 3.53.579 6.926 1.647 10.097 11.357-1.871 15.805-3.149 29.33-6.517l2.417-.602c16.951-4.221 27.11-9.89 32.379-13.529l-.007-8.351" class="quaternary" opacity=".5" style="mix-blend-mode:multiply" transform="matrix(.74 0 0 .74 315.078 245.988)"/><path fill="#EBE6EF" d="M340.148 304.164c0-7.496.767-13.572 1.712-13.572h.18c.405.012 1.762.991 4.446 3.763 4.809-4.7 9.617-4.7 14.424 0 2.684-2.772 4.041-3.75 4.445-3.763h.18c.946 0 1.712 6.076 1.712 13.572v-.822V305c0 6.618-5.364 11.982-11.982 11.982h-3.134c-6.618 0-11.982-5.364-11.982-11.982v-1.66" class="quinary"/></g><path fill="#B26836" d="m29-118.904 33 28.135-.034 76.954c0 33.806-27.413 61.219-61.219 61.219H-.747c-33.806 0-61.219-27.413-61.219-61.219l.034-76.528" class="quaternary" style="display:block" transform="matrix(.74 0 0 .74 315.585 198.95)"/><g mask="url(#x)" opacity=".5" style="mix-blend-mode:multiply;display:block"><path fill="#B26836" d="m337.045 110.962 24.42 20.82-.025 56.946c0 25.016-20.286 45.302-45.302 45.302h-1.106c-25.016 0-45.302-20.286-45.302-45.302l.025-56.631" class="quaternary" opacity="1"/></g><g style="display:block"><path fill="none" stroke="#646E78" stroke-linecap="round" stroke-linejoin="round" stroke-width="2.22" d="M361.44 166.19s1.936-29.309-28.112-44.978c0 0-9.171 34.056-66.484 45.925 0 0-19.65-57.862 4.888-71.914 2.75-1.574 7.26-1.414 9.928.294 3.745 2.397 7.5 6.304 9.869 8.32 1.797 1.532 4.1 2.347 6.459 2.232 3.25-.16 7.753-1.092 12.197-3.475 35.559-14.133 56.85 2.132 56.417 23.226-.403 19.63 1.843 35.946-5.162 40.37z" class="octonary"/><path fill="#646E78" d="M361.44 166.19s1.936-29.309-28.112-44.978c0 0-9.171 34.056-66.484 45.925 0 0-19.65-57.862 4.888-71.914 2.75-1.574 7.26-1.414 9.928.294 3.745 2.397 7.5 6.304 9.869 8.32 1.797 1.532 4.1 2.347 6.459 2.232 3.25-.16 7.753-1.092 12.197-3.475 35.559-14.133 56.85 2.132 56.417 23.226-.403 19.63 1.843 35.946-5.162 40.37z" class="octonary"/></g><g fill="none" stroke="#121331" stroke-linecap="round" stroke-linejoin="round" stroke-width="7.03" style="display:block"><path d="M361.44 163.872v24.856c0 25.016-20.286 45.302-45.302 45.302h-1.106c-25.016 0-45.302-20.286-45.302-45.302v-22.221" class="primary"/><path d="M361.44 166.19s1.936-29.309-28.112-44.978c0 0-9.171 34.056-66.484 45.925 0 0-19.65-57.862 4.888-71.914 2.75-1.574 7.26-1.414 9.928.294 3.745 2.397 7.5 6.304 9.869 8.32 1.797 1.532 4.1 2.347 6.459 2.232 3.25-.16 7.753-1.092 12.197-3.475 35.559-14.133 56.85 2.132 56.417 23.226-.403 19.63 1.843 35.946-5.162 40.37z" class="primary"/></g><g fill="none" stroke-linecap="round" stroke-linejoin="round" style="display:block"><path stroke="#121331" stroke-width="7.03" d="M290.745 226.978v14.61c0 12.926 10.484 23.41 23.41 23.41H316c12.927 0 23.411-10.484 23.411-23.41V227.6" class="primary"/><path stroke="#EBE6EF" stroke-width="3.33" d="M340.148 304.164s0 0 0 0c0-7.496.767-13.572 1.712-13.572h.18c.405.012 1.762.991 4.446 3.763 4.809-4.7 9.617-4.7 14.424 0 2.684-2.772 4.041-3.75 4.445-3.763h.18c.946 0 1.712 6.076 1.712 13.572 0 0 0 0 0 0v-.822V305c0 6.618-5.364 11.982-11.982 11.982h-3.134c-6.618 0-11.982-5.364-11.982-11.982v-1.66" class="quinary"/><path stroke="#121331" stroke-width="7.03" d="m341.255 241.587 6.636.369c32.175 0 58.252 26.077 58.252 58.252v23.319c0 6.26-5.078 11.337-11.337 11.337h-14.379c-28.48 2.211-28.115 12.443-51.922 12.443h-25.01c-23.807 0-23.442-10.232-51.922-12.443h-14.379c-6.26 0-11.337-5.078-11.337-11.337v-23.32c0-32.174 26.077-58.251 58.252-58.251l6.636-.369" class="primary"/></g><path fill="#3A3347" d="M87.343 107.461C92.278 77.103 102.996-100.46.491-100.46h-.982c-102.505 0-87.731 179.313-87.102 205.671" class="undenary" style="display:block" transform="matrix(.89 0 0 .89 215.475 161.762)"/><g style="display:block"><path fill="#F24C00" d="m185.391 244.15-11.806-1.087c-38.698 0-66.5 30.342-66.5 69.04v28.045c0 7.529 6.107 13.635 13.635 13.635h17.293c34.253 2.66 33.815 14.965 62.448 14.965h30.078c28.633 0 28.195-12.305 62.448-14.965h17.294c7.528 0 13.634-6.106 13.634-13.635v-28.046c0-38.697-31.362-70.06-70.06-70.06l-8.155 2.109-.009-.056" class="nonary"/><path fill="#F24C00" d="m-33.83-58.86-13.266-1.222c-43.48 0-74.719 34.092-74.719 77.572v31.512c0 8.459 6.862 15.32 15.321 15.32h19.43C-87.5 29.134-95-27.288-53.186-43.705" class="nonary" opacity=".5" style="mix-blend-mode:multiply" transform="matrix(.89 0 0 .89 215.5 296.536)"/><path fill="none" stroke="#EBE6EF" stroke-linecap="round" stroke-linejoin="round" stroke-width="10.68" d="M214.88 304.568s0 0 0 0m0 22.5s0 0 0 0m0 22.502s0 0 0 0" class="quinary"/><path fill="#FFC738" d="m185.325 192.335-.085 50.184h-13.461c-3.115 0-6.564.556-8.024 1.04 1.148 20.853 23.131 37.254 50.072 37.254 27.19 0 49.315-16.704 50.098-37.815 0 0-3.591-1.313-6.261-1.258-4.56.095-11.904.102-11.904.102v-49.405l-60.435-.102z" class="tertiary"/><path fill="#FFC738" d="m-32.04-78.039-.095 56.386H-47.26c-3.5 0-7.375.625-9.015 1.169.315 5.714 2.022 11.13 4.862 16.054 22.778-10.881 72.278-3.312 87.188-32.739l.09.069v-40.824l-67.905-.115z" class="tertiary" opacity=".5" style="mix-blend-mode:multiply" transform="matrix(.89 0 0 .89 213.84 261.79)"/></g><g style="display:block"><path fill="#FFC738" d="m236.457 89.502 34.927 28.182-.217 58.52c0 30.384-24.636 55.021-55.02 55.021h-1.344c-30.384 0-55.02-24.637-55.02-55.02l.083-43.453" class="tertiary"/><path fill="#FFC738" d="m-50.425-72.87 8.231 9.907V-5.96c.221 29.383 39.471 50.383 76.443 43.976-9.652 6.235-21.151 9.853-33.494 9.853h-1.51c-34.139 0-61.82-27.681-61.82-61.82l.093-41.323" class="tertiary" opacity=".5" style="mix-blend-mode:multiply" transform="matrix(.89 0 0 .89 215.475 188.621)"/><path fill="#3A3347" d="M157.904 106.963c-3.545 12.947-1.629 43.021-1.629 43.021 1.185-.243 2.36-.504 3.507-.765 66.476-15.047 77.242-55.01 77.242-55.01 19.817 10.848 34.142 36.313 34.142 51.81.065 1.791 0 2.818 0 2.818 3.444-5.583 2.603-18.628 1.894-41.848 0 0-32.64-31.689-60.23-29.909" class="undenary"/></g><g mask="url(#y)" style="display:block"><path fill="none" stroke="#121331" stroke-linecap="round" stroke-linejoin="round" stroke-width="6.23" d="M293.878 251.171c.89-20.29 13.264-178.819-77.966-178.819 0 0 0 0 0 0h-.874s0 0 0 0c-91.23 0-78.857 158.529-77.966 178.82" class="primary"/></g><g fill="none" stroke="#121331" stroke-linecap="round" stroke-linejoin="round" stroke-width="6.23" style="display:block"><path d="M271.167 146.017v30.187c0 30.384-24.636 55.021-55.02 55.021h-1.344c-30.384 0-55.02-24.637-55.02-55.02v-26.988m-12.543 2.004" class="primary"/><path d="M157.904 106.963c-3.545 12.947-1.629 43.021-1.629 43.021 1.185-.243 2.36-.504 3.507-.765 66.476-15.047 77.242-55.01 77.242-55.01 19.817 10.848 34.142 36.313 34.142 51.81.065 1.791 0 2.818 0 2.818 3.444-5.583 2.603-18.628 1.894-41.848m-1.893 41.845" class="primary"/></g><g fill="none" stroke="#121331" stroke-linecap="round" stroke-linejoin="round" stroke-width="6.23" style="display:block"><path d="m185.382 224.324.01 17.275-8.247.443c-38.698 0-70.06 31.363-70.06 70.06v28.046c0 7.529 6.107 13.635 13.635 13.635h17.293c34.253 2.66 33.815 14.965 62.448 14.965h30.078c28.633 0 28.195-12.305 62.448-14.965h17.293c7.528 0 13.635-6.106 13.635-13.635v-28.046c0-38.697-31.362-70.06-70.06-70.06l-8.155-.443-.009-.056.01-16.858" class="primary"/><path d="M163.755 243.327c1.148 20.852 23.131 37.486 50.072 37.486 27.19 0 49.315-16.936 50.098-38.047" class="primary"/></g></g><g clip-path="url(#z)" style="display:none"><path class="denary" style="display:none"/><g mask="url(#A)" style="mix-blend-mode:multiply;display:none"><path class="denary"/></g><path class="quinary" style="display:none"/><path class="quaternary" style="display:none"/><path class="quaternary" style="mix-blend-mode:multiply;display:none"/><path class="quaternary" style="display:none"/><g mask="url(#B)" style="mix-blend-mode:multiply;display:none"><path class="quaternary"/></g><g style="display:none"><path fill="none" class="octonary"/><path class="octonary"/></g><g fill="none" style="display:none"><path class="primary"/><path class="primary"/></g><g fill="none" style="display:none"><path class="primary"/><path class="quinary"/><path class="primary"/></g><path class="septenary" style="display:none"/><g mask="url(#C)" style="mix-blend-mode:multiply;display:none"><path class="septenary"/></g><path class="secondary" style="display:none"/><path class="secondary" style="mix-blend-mode:multiply;display:none"/><path class="secondary" style="display:none"/><g mask="url(#D)" style="mix-blend-mode:multiply;display:none"><path class="secondary"/></g><g style="display:none"><path fill="none" class="senary"/><path class="senary"/></g><g fill="none" style="display:none"><path class="primary"/><path class="primary"/></g><g fill="none" style="display:none"><path class="primary"/><path class="primary"/></g><path class="undenary" style="display:none"/><g style="display:none"><path class="nonary"/><path class="nonary" style="mix-blend-mode:multiply"/><path fill="none" class="quinary"/><path class="secondary"/><path class="secondary" style="mix-blend-mode:multiply"/></g><g style="display:none"><path class="tertiary"/><path class="tertiary" style="mix-blend-mode:multiply"/></g><g style="display:none"><path class="tertiary"/><path class="tertiary" style="mix-blend-mode:multiply"/></g><path class="undenary" style="display:none"/><path fill="none" class="primary" style="display:none"/><g fill="none" style="display:none"><path class="primary"/><path class="primary"/><path class="primary"/><path class="primary"/></g><g fill="none" style="display:none"><path class="primary"/><path class="primary"/></g></g></g></svg>